<svg
  width="90"
  height="80"
  viewBox="0 0 90 80"
  fill="none"
  xmlns="http://www.w3.org/2000/svg"
>
  <g clip-path="url(#clip0_33_359)">
    <mask
      id="mask0_33_359"
      style="mask-type: luminance"
      maskUnits="userSpaceOnUse"
      x="15"
      y="3"
      width="42"
      height="75"
    >
      <path
        d="M15.3271 3.77142H56.8225V77.0425H15.3271V3.77142Z"
        fill="white"
      />
    </mask>
    <g mask="url(#mask0_33_359)">
      <path
        d="M44.5349 77.0192C33.5244 77.0192 25.3196 71.3572 25.3196 57.8058V36.108H15.3176V24.3576C26.3262 21.4993 30.929 12.025 31.4605 3.82019H42.8916V22.4514H56.2327V36.108H42.8916V55.0021C42.8916 60.666 45.7538 62.6228 50.3001 62.6228H56.7604V77.0192H44.5349Z"
        fill="#0013C2"
      />
    </g>
    <mask
      id="mask1_33_359"
      style="mask-type: luminance"
      maskUnits="userSpaceOnUse"
      x="23"
      y="3"
      width="43"
      height="75"
    >
      <path
        d="M23.6311 3.77142H65.1264V77.0425H23.6311V3.77142Z"
        fill="white"
      />
    </mask>
    <g mask="url(#mask1_33_359)">
      <path
        d="M52.8384 77.0192C41.8259 77.0192 33.623 71.3572 33.623 57.8058V36.108H23.6211V24.3576C34.6277 21.4993 39.2305 12.025 39.764 3.82019H51.1931V22.4514H64.5343V36.108H51.1931V55.0021C51.1931 60.666 54.0553 62.6228 58.6036 62.6228H65.0619V77.0192H52.8384Z"
        fill="#3549FF"
      />
    </g>
    <mask
      id="mask2_33_359"
      style="mask-type: luminance"
      maskUnits="userSpaceOnUse"
      x="32"
      y="3"
      width="43"
      height="75"
    >
      <path d="M32.948 3.77142H74.4433V77.0425H32.948V3.77142Z" fill="white" />
    </mask>
    <g mask="url(#mask2_33_359)">
      <path
        d="M62.1575 77.0192C51.145 77.0192 42.9402 71.3572 42.9402 57.8058V36.108H32.9402V24.3576C43.9468 21.4993 48.5496 12.025 49.0831 3.82019H60.5122V22.4514H73.8533V36.108H60.5122V55.0021C60.5122 60.666 63.3744 62.6228 67.9227 62.6228H74.381V77.0192H62.1575Z"
        fill="#5ABAFF"
      />
    </g>
  </g>
  <defs>
    <clipPath id="clip0_33_359">
      <rect width="89.7196" height="80" fill="white" />
    </clipPath>
  </defs>
</svg>
