<svg width="647" height="196" viewBox="0 0 647 196" fill="none" xmlns="http://www.w3.org/2000/svg">
<mask id="mask0_21_246" style="mask-type:luminance" maskUnits="userSpaceOnUse" x="0" y="0" width="111" height="196">
<path d="M0 0H111V196H0V0Z" fill="white"/>
</mask>
<g mask="url(#mask0_21_246)">
<path d="M78.1304 195.937C48.6772 195.937 26.7293 180.792 26.7293 144.542V86.4999H-0.0258789V55.0676C29.422 47.4218 41.7345 22.078 43.1564 0.130127H73.7345V49.9687H109.422V86.4999H73.7345V137.042C73.7345 152.193 81.3908 157.427 93.5522 157.427H110.833V195.937H78.1304Z" fill="#0013C2"/>
</g>
<mask id="mask1_21_246" style="mask-type:luminance" maskUnits="userSpaceOnUse" x="22" y="0" width="112" height="196">
<path d="M22.2134 0H133.213V196H22.2134V0Z" fill="white"/>
</mask>
<g mask="url(#mask1_21_246)">
<path d="M100.344 195.937C70.8854 195.937 48.9427 180.792 48.9427 144.542V86.4999H22.1875V55.0676C51.6302 47.4218 63.9427 22.078 65.3698 0.130127H95.9427V49.9687H131.63V86.4999H95.9427V137.042C95.9427 152.193 103.599 157.427 115.766 157.427H133.042V195.937H100.344Z" fill="#3549FF"/>
</g>
<mask id="mask2_21_246" style="mask-type:luminance" maskUnits="userSpaceOnUse" x="47" y="0" width="112" height="196">
<path d="M47.1353 0H158.135V196H47.1353V0Z" fill="white"/>
</mask>
<g mask="url(#mask2_21_246)">
<path d="M125.271 195.937C95.8122 195.937 73.8643 180.792 73.8643 144.542V86.4999H47.1143V55.0676C76.557 47.4218 88.8695 22.078 90.2966 0.130127H120.869V49.9687H156.557V86.4999H120.869V137.042C120.869 152.193 128.526 157.427 140.692 157.427H157.968V195.937H125.271Z" fill="#5ABAFF"/>
</g>
<path d="M229.429 111.826C224.78 111.826 220.894 111.489 217.75 110.837C214.628 110.208 212.102 109.164 210.159 107.693C208.205 106.233 206.835 104.279 206.026 101.854C205.218 99.428 204.814 96.497 204.814 93.0495V56.1264H193V43.0101H205.128C206.318 39.5739 207.396 35.9579 208.362 32.1847C209.35 28.4116 210.44 24.6833 211.641 21H228.126V43.0101H244.791V56.1264H228.126V86.716C228.126 87.5919 228.093 88.4229 228.037 89.2314C228.003 90.04 227.992 90.8822 227.992 91.7469C227.992 94.5655 228.542 96.5083 229.654 97.5863C230.788 98.6644 233.303 99.2034 237.2 99.2034H244.791V110.343C242.298 110.792 239.682 111.152 236.93 111.421C234.202 111.691 231.697 111.826 229.429 111.826Z" fill="#0013C2"/>
<path d="M293.543 111.825C280.483 111.825 270.388 108.972 263.268 103.245C256.137 97.5293 252.578 88.4108 252.578 75.8898C252.578 63.6719 256.014 54.5983 262.909 48.669C269.826 42.7398 279.495 39.7751 291.926 39.7751C305.604 39.7751 315.61 43.1328 321.932 49.8369C328.243 56.5186 331.41 66.8611 331.41 80.8757H275.576C275.452 81.4147 275.396 81.9089 275.396 82.358C275.396 82.7848 275.396 83.2564 275.396 83.7954C275.396 89.2194 277.114 93.1161 280.562 95.4743C284.032 97.8437 288.198 99.0229 293.049 99.0229C297.687 99.0229 301.427 98.1133 304.279 96.2828C307.154 94.4636 308.692 92.038 308.906 89.006H331.23C330.264 96.1368 326.794 101.718 320.809 105.761C314.812 109.803 305.728 111.825 293.543 111.825ZM292.87 51.5888C287.682 51.5888 283.717 53.0711 280.966 56.0357C278.204 59.0003 276.351 63.6157 275.396 69.8707H307.917C307.378 57.6865 302.359 51.5888 292.87 51.5888Z" fill="#0013C2"/>
<path d="M436.296 110.523V68.2543C436.296 64.9303 435.319 61.8646 433.376 59.0459C431.456 56.2385 428.761 54.8236 425.291 54.8236C421.181 54.8236 417.969 56.2947 415.634 59.2256C413.32 62.1341 412.175 65.5816 412.175 69.5569V110.523H389.85V68.2543C389.85 64.9303 388.873 61.8646 386.93 59.0459C384.977 56.2385 382.281 54.8236 378.845 54.8236C374.859 54.8236 371.703 56.2947 369.367 59.2256C367.054 62.1341 365.909 65.5816 365.909 69.5569V110.523H343.404V41.5726H361.192C361.608 43.403 361.978 45.211 362.315 47.0077C362.641 48.782 362.966 50.5788 363.303 52.398C366.74 48.0858 370.591 44.8067 374.847 42.5608C379.126 40.2924 383.528 39.147 388.053 39.147C392.905 39.147 397.239 40.124 401.08 42.0667C404.909 43.987 408.289 47.4906 411.231 52.5777C414.881 48.3553 418.868 45.1212 423.18 42.8752C427.514 40.6068 431.726 39.4614 435.802 39.4614C442.922 39.4614 448.48 41.6063 452.467 45.8848C456.476 50.1408 458.486 56.4743 458.486 64.8854V110.523H436.296Z" fill="#0013C2"/>
<path d="M472.546 58.8656C472.872 56.294 473.781 53.8571 475.286 51.5438C476.813 49.2081 479.026 47.1867 481.934 45.4798C484.865 43.7504 488.537 42.3692 492.939 41.3473C497.364 40.3029 502.608 39.7751 508.661 39.7751C513.961 39.7751 518.79 40.1794 523.17 40.988C527.538 41.7965 531.277 43.0767 534.399 44.806C537.544 46.5129 539.992 48.7477 541.766 51.4989C543.563 54.2614 544.461 57.518 544.461 61.2912V90.4434C544.461 92.3974 545 94.2952 546.078 96.1481C547.156 97.9785 549.088 98.8881 551.873 98.8881L552.367 110.702C551.491 110.702 550.143 110.881 548.324 111.241C546.494 111.623 544.337 111.825 541.856 111.825H540.868C535.893 111.825 531.929 111.252 528.964 110.118C525.999 108.984 523.596 106.693 521.777 103.245C519.497 105.076 517.285 106.524 515.129 107.602C512.973 108.68 510.817 109.556 508.661 110.208C506.505 110.836 504.225 111.252 501.833 111.465C499.464 111.701 496.825 111.825 493.928 111.825C486.168 111.825 480.283 110.511 476.274 107.872C472.288 105.21 470.3 100.64 470.3 94.1716C470.3 89.5338 471.21 85.5922 473.04 82.358C474.86 79.1239 477.824 76.4962 481.934 74.4524C486.033 72.3861 491.322 70.8813 497.791 69.9156C504.281 68.9274 512.176 68.4333 521.463 68.4333V63.8965C521.463 61.8639 521.07 60.0672 520.295 58.5062C519.542 56.9228 518.543 55.6202 517.285 54.5983C516.05 53.5876 514.657 52.8352 513.108 52.3524C511.547 51.847 509.963 51.5888 508.346 51.5888C505.853 51.5888 503.316 52.1615 500.71 53.2957C498.127 54.4411 496.353 56.294 495.365 58.8656H472.546ZM521.463 78.6298C512.266 78.6298 505.269 79.472 500.486 81.1452C495.691 82.8297 493.299 85.9291 493.299 90.4434C493.299 92.5995 493.714 94.3513 494.556 95.6989C495.421 97.0464 496.465 98.0796 497.701 98.7983C498.958 99.4945 500.283 99.9549 501.698 100.191C503.102 100.404 504.349 100.505 505.427 100.505C507.156 100.505 508.986 100.236 510.907 99.6966C512.849 99.1576 514.568 98.3266 516.072 97.1812C517.6 96.047 518.869 94.6433 519.89 92.9588C520.935 91.2856 521.463 89.3654 521.463 87.2093V78.6298Z" fill="#0013C2"/>
<path d="M611.122 110.522V68.2536C611.122 66.5467 610.819 64.8847 610.224 63.2676C609.651 61.6505 608.842 60.2356 607.798 59.0003C606.776 57.7426 605.507 56.7432 603.98 55.9908C602.475 55.2159 600.813 54.8229 598.994 54.8229C594.772 54.8229 591.358 56.2603 588.752 59.1351C586.17 61.9874 584.889 65.4574 584.889 69.5562V110.522H561.756V41.5719H580.218L582.464 53.3855C584.856 50.4546 587.236 48.1076 589.606 46.3333C591.964 44.5702 594.334 43.2114 596.703 42.2457C599.095 41.2575 601.442 40.6061 603.755 40.2693C606.091 39.9436 608.382 39.7751 610.628 39.7751C618.736 39.7751 624.71 41.8639 628.55 46.0188C632.38 50.185 634.3 56.4737 634.3 64.8847V110.522H611.122Z" fill="#0013C2"/>
<path d="M230.11 175C229.211 175 228.156 174.921 226.966 174.775C225.764 174.618 224.517 174.293 223.237 173.787C221.946 173.248 220.61 172.518 219.24 171.586C217.892 170.665 216.601 169.385 215.377 167.768C215.377 167.836 215.343 167.858 215.287 167.858L213.939 174.057H202.889V117.639H216.724V138.975C218.072 137.628 219.352 136.572 220.587 135.786C221.811 135.011 222.99 134.416 224.136 133.989C225.27 133.574 226.348 133.304 227.37 133.181C228.414 133.035 229.492 132.956 230.604 132.956C236.017 132.956 240.284 134.618 243.406 137.942C246.55 141.266 248.122 146.589 248.122 153.888C248.122 157.695 247.696 160.941 246.865 163.636C246.022 166.308 244.821 168.487 243.271 170.194C241.71 171.878 239.824 173.102 237.611 173.877C235.388 174.618 232.895 175 230.11 175ZM234.287 151.867C234.287 150.519 234.13 149.239 233.838 148.004C233.535 146.78 233.03 145.713 232.311 144.815C231.615 143.894 230.705 143.153 229.571 142.614C228.425 142.075 227.055 141.805 225.438 141.805C223.754 141.805 222.35 142.142 221.216 142.793C220.104 143.422 219.206 144.264 218.521 145.309C217.825 146.331 217.319 147.487 216.994 148.768C216.69 150.059 216.544 151.35 216.544 152.631V155.55C216.544 156.842 216.69 158.133 216.994 159.413C217.319 160.705 217.825 161.873 218.521 162.917C219.206 163.939 220.104 164.781 221.216 165.432C222.35 166.061 223.754 166.376 225.438 166.376C227.055 166.376 228.425 166.106 229.571 165.567C230.705 165.028 231.615 164.298 232.311 163.366C233.03 162.412 233.535 161.334 233.838 160.132C234.13 158.942 234.287 157.661 234.287 156.314V151.867Z" fill="#0013C2"/>
<path d="M277.739 174.91C269.924 174.91 263.882 173.203 259.637 169.79C255.381 166.376 253.259 160.918 253.259 153.394C253.259 146.117 255.325 140.705 259.458 137.134C263.59 133.574 269.362 131.788 276.796 131.788C284.994 131.788 290.99 133.798 294.764 137.807C298.537 141.828 300.423 148.026 300.423 156.404H267.004C266.937 156.741 266.914 157.033 266.914 157.302C266.914 157.549 266.914 157.83 266.914 158.156C266.914 161.39 267.947 163.725 270.013 165.163C272.08 166.578 274.561 167.274 277.47 167.274C280.255 167.274 282.501 166.735 284.208 165.657C285.915 164.556 286.824 163.085 286.948 161.255H300.334C299.727 165.511 297.638 168.846 294.045 171.272C290.474 173.697 285.039 174.91 277.739 174.91ZM277.38 138.885C274.258 138.885 271.878 139.773 270.238 141.536C268.587 143.31 267.476 146.072 266.914 149.846H286.364C286.061 142.546 283.062 138.885 277.38 138.885Z" fill="#0013C2"/>
<path d="M333.951 143.332C329.549 143.332 326.416 144.533 324.563 146.925C322.732 149.328 321.823 152.36 321.823 156.044V174.146H307.404V132.866H318.903L320.745 141.086C321.733 139.019 322.777 137.358 323.889 136.1C325.023 134.842 326.18 133.899 327.348 133.27C328.516 132.619 329.706 132.192 330.941 132.012C332.165 131.81 333.367 131.698 334.535 131.698C334.827 131.698 335.13 131.72 335.433 131.743C335.725 131.776 336.039 131.833 336.376 131.922L337.904 132.192V143.332H333.951Z" fill="#0013C2"/>
<path d="M369.582 175C368.684 175 367.628 174.921 366.438 174.775C365.236 174.618 363.99 174.293 362.709 173.787C361.418 173.248 360.082 172.518 358.712 171.586C357.364 170.665 356.073 169.385 354.849 167.768C354.849 167.836 354.815 167.858 354.759 167.858L353.411 174.057H342.361V117.639H356.196V138.975C357.544 137.628 358.824 136.572 360.059 135.786C361.283 135.011 362.462 134.416 363.608 133.989C364.742 133.574 365.82 133.304 366.842 133.181C367.886 133.035 368.964 132.956 370.076 132.956C375.489 132.956 379.756 134.618 382.878 137.942C386.022 141.266 387.594 146.589 387.594 153.888C387.594 157.695 387.168 160.941 386.337 163.636C385.494 166.308 384.293 168.487 382.743 170.194C381.182 171.878 379.296 173.102 377.083 173.877C374.86 174.618 372.367 175 369.582 175ZM373.759 151.867C373.759 150.519 373.602 149.239 373.31 148.004C373.007 146.78 372.502 145.713 371.783 144.815C371.087 143.894 370.177 143.153 369.043 142.614C367.898 142.075 366.528 141.805 364.91 141.805C363.226 141.805 361.822 142.142 360.688 142.793C359.576 143.422 358.678 144.264 357.993 145.309C357.297 146.331 356.791 147.487 356.466 148.768C356.163 150.059 356.017 151.35 356.017 152.631V155.55C356.017 156.842 356.163 158.133 356.466 159.413C356.791 160.705 357.297 161.873 357.993 162.917C358.678 163.939 359.576 164.781 360.688 165.432C361.822 166.061 363.226 166.376 364.91 166.376C366.528 166.376 367.898 166.106 369.043 165.567C370.177 165.028 371.087 164.298 371.783 163.366C372.502 162.412 373.007 161.334 373.31 160.132C373.602 158.942 373.759 157.661 373.759 156.314V151.867Z" fill="#0013C2"/>
<path d="M393.585 143.243C393.765 141.693 394.304 140.222 395.202 138.841C396.123 137.437 397.46 136.224 399.2 135.202C400.93 134.158 403.119 133.338 405.758 132.732C408.42 132.103 411.564 131.788 415.191 131.788C418.358 131.788 421.255 132.047 423.861 132.552C426.466 133.035 428.712 133.798 430.598 134.843C432.485 135.865 433.945 137.201 435 138.841C436.078 140.491 436.617 142.434 436.617 144.68V162.153C436.617 163.299 436.932 164.422 437.561 165.522C438.212 166.634 439.38 167.184 441.064 167.184L441.334 174.236C440.817 174.236 440.009 174.338 438.908 174.551C437.83 174.787 436.539 174.91 435.045 174.91H434.461C431.497 174.91 429.116 174.573 427.319 173.922C425.545 173.237 424.13 171.856 423.052 169.79C421.671 170.901 420.334 171.788 419.054 172.44C417.763 173.069 416.471 173.585 415.191 173.967C413.9 174.349 412.541 174.607 411.104 174.731C409.689 174.843 408.117 174.91 406.387 174.91C401.716 174.91 398.178 174.135 395.786 172.574C393.417 170.991 392.238 168.251 392.238 164.354C392.238 161.569 392.777 159.222 393.855 157.302C394.955 155.359 396.741 153.776 399.2 152.541C401.648 151.317 404.815 150.418 408.678 149.846C412.563 149.25 417.28 148.947 422.827 148.947V146.252C422.827 145.028 422.603 143.95 422.154 143.018C421.704 142.063 421.098 141.289 420.357 140.682C419.638 140.053 418.796 139.604 417.841 139.335C416.909 139.043 415.966 138.885 415.012 138.885C413.507 138.885 411.98 139.234 410.43 139.919C408.903 140.581 407.836 141.693 407.241 143.243H393.585ZM422.827 155.056C417.347 155.056 413.17 155.573 410.295 156.583C407.42 157.572 405.983 159.436 405.983 162.153C405.983 163.445 406.23 164.489 406.747 165.298C407.286 166.106 407.914 166.724 408.633 167.139C409.374 167.566 410.172 167.836 411.014 167.948C411.845 168.071 412.597 168.128 413.26 168.128C414.27 168.128 415.371 167.982 416.539 167.678C417.707 167.353 418.74 166.847 419.638 166.151C420.537 165.466 421.278 164.624 421.884 163.636C422.513 162.647 422.827 161.502 422.827 160.177V155.056Z" fill="#0013C2"/>
<path d="M476.522 174.147V149.621C476.522 147.442 475.86 145.702 474.546 144.41C473.254 143.13 471.514 142.479 469.335 142.479C466.876 142.479 464.843 143.22 463.226 144.68C461.609 146.117 460.801 147.993 460.801 150.295V174.147H446.966V117.639H460.801V139.245C463.855 136.673 466.618 135 469.111 134.214C471.592 133.439 473.962 133.046 476.208 133.046C481.115 133.046 484.697 134.259 486.943 136.684C489.212 139.11 490.357 142.748 490.357 147.6V174.147H476.522Z" fill="#0013C2"/>
<path d="M498.189 143.243C498.369 141.693 498.908 140.222 499.806 138.841C500.727 137.437 502.064 136.224 503.804 135.202C505.534 134.158 507.723 133.338 510.362 132.732C513.024 132.103 516.168 131.788 519.795 131.788C522.962 131.788 525.859 132.047 528.465 132.552C531.07 133.035 533.316 133.798 535.202 134.843C537.089 135.865 538.549 137.201 539.604 138.841C540.682 140.491 541.221 142.434 541.221 144.68V162.153C541.221 163.299 541.536 164.422 542.165 165.522C542.816 166.634 543.984 167.184 545.668 167.184L545.938 174.236C545.421 174.236 544.613 174.338 543.512 174.551C542.434 174.787 541.143 174.91 539.649 174.91H539.065C536.101 174.91 533.72 174.573 531.923 173.922C530.149 173.237 528.734 171.856 527.656 169.79C526.275 170.901 524.938 171.788 523.658 172.44C522.367 173.069 521.075 173.585 519.795 173.967C518.504 174.349 517.145 174.607 515.708 174.731C514.293 174.843 512.721 174.91 510.991 174.91C506.32 174.91 502.782 174.135 500.39 172.574C498.021 170.991 496.842 168.251 496.842 164.354C496.842 161.569 497.381 159.222 498.459 157.302C499.559 155.359 501.345 153.776 503.804 152.541C506.252 151.317 509.419 150.418 513.282 149.846C517.167 149.25 521.884 148.947 527.431 148.947V146.252C527.431 145.028 527.207 143.95 526.758 143.018C526.308 142.063 525.702 141.289 524.961 140.682C524.242 140.053 523.4 139.604 522.445 139.335C521.513 139.043 520.57 138.885 519.616 138.885C518.111 138.885 516.584 139.234 515.034 139.919C513.507 140.581 512.44 141.693 511.845 143.243H498.189ZM527.431 155.056C521.951 155.056 517.774 155.573 514.899 156.583C512.024 157.572 510.587 159.436 510.587 162.153C510.587 163.445 510.834 164.489 511.351 165.298C511.89 166.106 512.518 166.724 513.237 167.139C513.978 167.566 514.776 167.836 515.618 167.948C516.449 168.071 517.201 168.128 517.864 168.128C518.874 168.128 519.975 167.982 521.143 167.678C522.311 167.353 523.344 166.847 524.242 166.151C525.141 165.466 525.882 164.624 526.488 163.636C527.117 162.647 527.431 161.502 527.431 160.177V155.056Z" fill="#0013C2"/>
<path d="M563.473 163.097C563.585 163.995 563.889 164.781 564.371 165.432C564.877 166.061 565.472 166.578 566.168 166.96C566.887 167.353 567.662 167.633 568.504 167.813C569.335 167.97 570.144 168.038 570.93 168.038C571.761 168.038 572.681 167.97 573.67 167.813C574.68 167.633 575.624 167.386 576.5 167.049C577.364 166.69 578.072 166.23 578.611 165.657C579.172 165.062 579.464 164.343 579.464 163.501C579.464 162.782 579.251 162.097 578.835 161.435C578.409 160.75 577.69 160.132 576.679 159.593C575.691 159.031 574.355 158.537 572.681 158.111C570.997 157.695 568.875 157.392 566.303 157.212L563.653 156.808C561.789 156.426 560.059 155.932 558.442 155.326C556.825 154.697 555.433 153.956 554.265 153.08C553.097 152.215 552.165 151.137 551.48 149.846C550.817 148.532 550.492 147.005 550.492 145.264C550.492 142.816 550.997 140.727 552.019 139.02C553.063 137.313 554.512 135.943 556.376 134.888C558.263 133.81 560.475 133.035 563.024 132.552C565.596 132.047 568.425 131.788 571.514 131.788C574.029 131.788 576.387 132.035 578.611 132.507C580.857 132.956 582.844 133.619 584.585 134.483C586.348 135.359 587.819 136.494 588.987 137.897C590.177 139.279 590.975 140.862 591.368 142.659H578.476C577.847 141.165 576.769 140.132 575.242 139.559C573.715 138.998 572.277 138.706 570.93 138.706C570.211 138.706 569.425 138.773 568.594 138.885C567.752 139.009 566.954 139.234 566.213 139.559C565.494 139.896 564.866 140.357 564.327 140.952C563.81 141.524 563.563 142.232 563.563 143.063C563.563 143.815 563.81 144.523 564.327 145.174C564.866 145.837 565.562 146.409 566.438 146.881C567.302 147.364 568.324 147.734 569.492 148.004C570.66 148.251 571.85 148.363 573.086 148.363C575.444 148.7 577.813 149.082 580.183 149.531C582.541 149.98 584.63 150.688 586.427 151.642C588.246 152.574 589.717 153.787 590.829 155.281C591.963 156.752 592.535 158.683 592.535 161.075C592.535 163.714 591.996 165.915 590.918 167.678C589.863 169.419 588.403 170.845 586.516 171.946C584.652 173.024 582.384 173.787 579.689 174.236C577.016 174.686 574.096 174.91 570.93 174.91C568.291 174.91 565.775 174.663 563.383 174.192C560.98 173.72 558.813 173.001 556.87 172.035C554.95 171.047 553.333 169.823 552.019 168.352C550.727 166.859 549.885 165.107 549.503 163.097H563.473Z" fill="#0013C2"/>
<path d="M598.436 143.243C598.616 141.693 599.155 140.222 600.053 138.841C600.974 137.437 602.31 136.224 604.051 135.202C605.78 134.158 607.97 133.338 610.609 132.732C613.27 132.103 616.415 131.788 620.042 131.788C623.209 131.788 626.106 132.047 628.711 132.552C631.316 133.035 633.562 133.798 635.449 134.843C637.335 135.865 638.795 137.201 639.851 138.841C640.929 140.491 641.468 142.434 641.468 144.68V162.153C641.468 163.299 641.782 164.422 642.411 165.522C643.063 166.634 644.231 167.184 645.915 167.184L646.184 174.236C645.668 174.236 644.859 174.338 643.759 174.551C642.681 174.787 641.389 174.91 639.896 174.91H639.312C636.347 174.91 633.967 174.573 632.17 173.922C630.396 173.237 628.981 171.856 627.903 169.79C626.521 170.901 625.185 171.788 623.905 172.44C622.613 173.069 621.322 173.585 620.042 173.967C618.75 174.349 617.392 174.607 615.954 174.731C614.539 174.843 612.967 174.91 611.238 174.91C606.566 174.91 603.029 174.135 600.637 172.574C598.267 170.991 597.088 168.251 597.088 164.354C597.088 161.569 597.627 159.222 598.705 157.302C599.806 155.359 601.591 153.776 604.051 152.541C606.499 151.317 609.666 150.418 613.529 149.846C617.414 149.25 622.131 148.947 627.678 148.947V146.252C627.678 145.028 627.453 143.95 627.004 143.018C626.555 142.063 625.949 141.289 625.207 140.682C624.489 140.053 623.647 139.604 622.692 139.335C621.76 139.043 620.817 138.885 619.862 138.885C618.357 138.885 616.83 139.234 615.28 139.919C613.753 140.581 612.686 141.693 612.091 143.243H598.436ZM627.678 155.056C622.198 155.056 618.02 155.573 615.146 156.583C612.271 157.572 610.833 159.436 610.833 162.153C610.833 163.445 611.081 164.489 611.597 165.298C612.136 166.106 612.765 166.724 613.484 167.139C614.225 167.566 615.022 167.836 615.864 167.948C616.695 168.071 617.448 168.128 618.11 168.128C619.121 168.128 620.221 167.982 621.389 167.678C622.557 167.353 623.59 166.847 624.489 166.151C625.387 165.466 626.128 164.624 626.735 163.636C627.364 162.647 627.678 161.502 627.678 160.177V155.056Z" fill="#0013C2"/>
</svg>
